<svg xmlns="http://www.w3.org/2000/svg" xmlns:xlink="http://www.w3.org/1999/xlink" width="831" zoomAndPan="magnify" viewBox="0 0 623.25 690.749984" height="921" preserveAspectRatio="xMidYMid meet" version="1.0"><defs><g/><clipPath id="f15d43d812"><path d="M 0 100.933594 L 518.90625 100.933594 L 518.90625 168.921875 L 0 168.921875 Z M 0 100.933594 " clip-rule="nonzero"/></clipPath><clipPath id="6e1f4c5730"><path d="M 0 0.933594 L 518.90625 0.933594 L 518.90625 68.921875 L 0 68.921875 Z M 0 0.933594 " clip-rule="nonzero"/></clipPath><clipPath id="3de4580ff8"><rect x="0" width="519" y="0" height="69"/></clipPath><clipPath id="5841c745a0"><path d="M 0 205.09375 L 518.90625 205.09375 L 518.90625 273.085938 L 0 273.085938 Z M 0 205.09375 " clip-rule="nonzero"/></clipPath><clipPath id="ca5e4d4419"><path d="M 0 0.09375 L 518.90625 0.09375 L 518.90625 68.085938 L 0 68.085938 Z M 0 0.09375 " clip-rule="nonzero"/></clipPath><clipPath id="f7c1620576"><rect x="0" width="519" y="0" height="69"/></clipPath><clipPath id="1c3d540205"><path d="M 0 309.257812 L 518.90625 309.257812 L 518.90625 377.246094 L 0 377.246094 Z M 0 309.257812 " clip-rule="nonzero"/></clipPath><clipPath id="d16d415b37"><path d="M 0 0.257812 L 518.90625 0.257812 L 518.90625 68.246094 L 0 68.246094 Z M 0 0.257812 " clip-rule="nonzero"/></clipPath><clipPath id="b11766ab30"><rect x="0" width="519" y="0" height="69"/></clipPath><clipPath id="cbd7077924"><path d="M 0 413.417969 L 518.90625 413.417969 L 518.90625 481.410156 L 0 481.410156 Z M 0 413.417969 " clip-rule="nonzero"/></clipPath><clipPath id="cedb662874"><path d="M 0 0.417969 L 518.90625 0.417969 L 518.90625 68.410156 L 0 68.410156 Z M 0 0.417969 " clip-rule="nonzero"/></clipPath><clipPath id="326b3430a1"><rect x="0" width="519" y="0" height="69"/></clipPath><clipPath id="c0f332117c"><path d="M 0 517.582031 L 518.90625 517.582031 L 518.90625 585.570312 L 0 585.570312 Z M 0 517.582031 " clip-rule="nonzero"/></clipPath><clipPath id="5f47c1c67e"><path d="M 0 0.582031 L 518.90625 0.582031 L 518.90625 68.570312 L 0 68.570312 Z M 0 0.582031 " clip-rule="nonzero"/></clipPath><clipPath id="3b4930fdf7"><rect x="0" width="519" y="0" height="69"/></clipPath><clipPath id="61fc10bd62"><path d="M 259.453125 205.367188 L 518.90625 205.367188 L 518.90625 273.359375 L 259.453125 273.359375 Z M 259.453125 205.367188 " clip-rule="nonzero"/></clipPath><clipPath id="f3d7389f3d"><path d="M 0.453125 0.367188 L 259.90625 0.367188 L 259.90625 68.359375 L 0.453125 68.359375 Z M 0.453125 0.367188 " clip-rule="nonzero"/></clipPath><clipPath id="ed612b649a"><rect x="0" width="260" y="0" height="69"/></clipPath><clipPath id="73b40f040f"><path d="M 259.453125 309.257812 L 518.90625 309.257812 L 518.90625 377.246094 L 259.453125 377.246094 Z M 259.453125 309.257812 " clip-rule="nonzero"/></clipPath><clipPath id="23ddc9d534"><path d="M 0.453125 0.257812 L 259.90625 0.257812 L 259.90625 68.246094 L 0.453125 68.246094 Z M 0.453125 0.257812 " clip-rule="nonzero"/></clipPath><clipPath id="c5246b2177"><rect x="0" width="260" y="0" height="69"/></clipPath><clipPath id="28d5152d10"><path d="M 0 308.984375 L 129.726562 308.984375 L 129.726562 376.972656 L 0 376.972656 Z M 0 308.984375 " clip-rule="nonzero"/></clipPath><clipPath id="fe406d76dc"><path d="M 0 0.984375 L 129.726562 0.984375 L 129.726562 68.972656 L 0 68.972656 Z M 0 0.984375 " clip-rule="nonzero"/></clipPath><clipPath id="5c5ae73eae"><rect x="0" width="130" y="0" height="69"/></clipPath><clipPath id="19483e10ff"><path d="M 194.589844 413.144531 L 518.90625 413.144531 L 518.90625 481.136719 L 194.589844 481.136719 Z M 194.589844 413.144531 " clip-rule="nonzero"/></clipPath><clipPath id="ab17910337"><path d="M 0.589844 0.144531 L 324.90625 0.144531 L 324.90625 68.136719 L 0.589844 68.136719 Z M 0.589844 0.144531 " clip-rule="nonzero"/></clipPath><clipPath id="8a5b79fd53"><rect x="0" width="325" y="0" height="69"/></clipPath><clipPath id="cbc8c32bcb"><path d="M 0 413.144531 L 129.726562 413.144531 L 129.726562 481.136719 L 0 481.136719 Z M 0 413.144531 " clip-rule="nonzero"/></clipPath><clipPath id="258af42e85"><path d="M 0 0.144531 L 129.726562 0.144531 L 129.726562 68.136719 L 0 68.136719 Z M 0 0.144531 " clip-rule="nonzero"/></clipPath><clipPath id="25a48a2a66"><rect x="0" width="130" y="0" height="69"/></clipPath><clipPath id="a909913fc7"><path d="M 0 517.308594 L 162.710938 517.308594 L 162.710938 585.296875 L 0 585.296875 Z M 0 517.308594 " clip-rule="nonzero"/></clipPath><clipPath id="82c735ee72"><path d="M 0 0.308594 L 162.710938 0.308594 L 162.710938 68.296875 L 0 68.296875 Z M 0 0.308594 " clip-rule="nonzero"/></clipPath><clipPath id="ce2b853b38"><rect x="0" width="163" y="0" height="69"/></clipPath><clipPath id="a2e25b0555"><path d="M 194.589844 517.308594 L 518.90625 517.308594 L 518.90625 585.296875 L 194.589844 585.296875 Z M 194.589844 517.308594 " clip-rule="nonzero"/></clipPath><clipPath id="fd869e351d"><path d="M 0.589844 0.308594 L 324.90625 0.308594 L 324.90625 68.296875 L 0.589844 68.296875 Z M 0.589844 0.308594 " clip-rule="nonzero"/></clipPath><clipPath id="77734ad5b0"><rect x="0" width="325" y="0" height="69"/></clipPath><clipPath id="da8f412d80"><path d="M 0 622.089844 L 518.90625 622.089844 L 518.90625 690.078125 L 0 690.078125 Z M 0 622.089844 " clip-rule="nonzero"/></clipPath><clipPath id="9a232c3a81"><path d="M 0 0.0898438 L 518.90625 0.0898438 L 518.90625 68.078125 L 0 68.078125 Z M 0 0.0898438 " clip-rule="nonzero"/></clipPath><clipPath id="29037e4342"><rect x="0" width="519" y="0" height="69"/></clipPath><clipPath id="c137210c24"><path d="M 0 621.816406 L 178.648438 621.816406 L 178.648438 689.804688 L 0 689.804688 Z M 0 621.816406 " clip-rule="nonzero"/></clipPath><clipPath id="cbd5b4f5b1"><path d="M 0 0.816406 L 178.648438 0.816406 L 178.648438 68.804688 L 0 68.804688 Z M 0 0.816406 " clip-rule="nonzero"/></clipPath><clipPath id="2fbaae6148"><rect x="0" width="179" y="0" height="69"/></clipPath><clipPath id="afa037c44a"><path d="M 194.589844 621.816406 L 518.90625 621.816406 L 518.90625 689.804688 L 194.589844 689.804688 Z M 194.589844 621.816406 " clip-rule="nonzero"/></clipPath><clipPath id="d4751b72c1"><path d="M 0.589844 0.816406 L 324.90625 0.816406 L 324.90625 68.804688 L 0.589844 68.804688 Z M 0.589844 0.816406 " clip-rule="nonzero"/></clipPath><clipPath id="c1d7aaf93d"><rect x="0" width="325" y="0" height="69"/></clipPath><clipPath id="3b04da6f75"><path d="M 175 618 L 182 618 L 182 690.210938 L 175 690.210938 Z M 175 618 " clip-rule="nonzero"/></clipPath><clipPath id="76283bf3a9"><path d="M 185 618 L 192 618 L 192 690.210938 L 185 690.210938 Z M 185 618 " clip-rule="nonzero"/></clipPath><clipPath id="650267618b"><path d="M 240.476562 135.089844 L 398.667969 135.089844 L 398.667969 230.601562 L 240.476562 230.601562 Z M 240.476562 135.089844 " clip-rule="nonzero"/></clipPath><clipPath id="f93ff83fb4"><path d="M 382.046875 135.089844 C 390.207031 135.089844 398.371094 140.53125 398.371094 148.691406 L 398.371094 187.070312 C 398.371094 195.234375 390.207031 203.394531 382.046875 203.394531 L 297.609375 203.394531 L 267.683594 230.601562 L 267.683594 203.394531 L 256.800781 203.394531 C 248.640625 203.394531 240.476562 195.234375 240.476562 187.070312 L 240.476562 148.691406 C 240.476562 140.53125 248.640625 135.089844 256.800781 135.089844 Z M 382.046875 135.089844 " clip-rule="nonzero"/></clipPath><clipPath id="c25a4a88c9"><path d="M 0.476562 0.0898438 L 158.402344 0.0898438 L 158.402344 95.601562 L 0.476562 95.601562 Z M 0.476562 0.0898438 " clip-rule="nonzero"/></clipPath><clipPath id="ab85d8e4ee"><path d="M 142.046875 0.0898438 C 150.207031 0.0898438 158.371094 5.53125 158.371094 13.691406 L 158.371094 52.070312 C 158.371094 60.234375 150.207031 68.394531 142.046875 68.394531 L 57.609375 68.394531 L 27.683594 95.601562 L 27.683594 68.394531 L 16.800781 68.394531 C 8.640625 68.394531 0.476562 60.234375 0.476562 52.070312 L 0.476562 13.691406 C 0.476562 5.53125 8.640625 0.0898438 16.800781 0.0898438 Z M 142.046875 0.0898438 " clip-rule="nonzero"/></clipPath><clipPath id="48c1323836"><rect x="0" width="159" y="0" height="96"/></clipPath><clipPath id="c77c1f801e"><path d="M 240.476562 135.089844 L 398.539062 135.089844 L 398.539062 230.972656 L 240.476562 230.972656 Z M 240.476562 135.089844 " clip-rule="nonzero"/></clipPath><clipPath id="b0c014aca4"><path d="M 382.039062 135.089844 C 390.199219 135.089844 398.363281 140.53125 398.363281 148.695312 L 398.363281 187.070312 C 398.363281 195.230469 390.199219 203.394531 382.039062 203.394531 L 297.609375 203.394531 L 267.683594 230.597656 L 267.683594 203.394531 L 256.800781 203.394531 C 248.640625 203.394531 240.476562 195.230469 240.476562 187.070312 L 240.476562 148.695312 C 240.476562 140.53125 248.640625 135.089844 256.800781 135.089844 Z M 382.039062 135.089844 " clip-rule="nonzero"/></clipPath><clipPath id="d21e2d1c84"><path d="M 428.957031 39.167969 L 587 39.167969 L 587 134.679688 L 428.957031 134.679688 Z M 428.957031 39.167969 " clip-rule="nonzero"/></clipPath><clipPath id="696a0aea69"><path d="M 570.527344 39.167969 C 578.6875 39.167969 586.851562 44.609375 586.851562 52.769531 L 586.851562 91.148438 C 586.851562 99.3125 578.6875 107.472656 570.527344 107.472656 L 486.089844 107.472656 L 456.164062 134.679688 L 456.164062 107.472656 L 445.28125 107.472656 C 437.121094 107.472656 428.957031 99.3125 428.957031 91.148438 L 428.957031 52.769531 C 428.957031 44.609375 437.121094 39.167969 445.28125 39.167969 Z M 570.527344 39.167969 " clip-rule="nonzero"/></clipPath><clipPath id="20fdd42dda"><path d="M 0.957031 0.167969 L 159 0.167969 L 159 95.679688 L 0.957031 95.679688 Z M 0.957031 0.167969 " clip-rule="nonzero"/></clipPath><clipPath id="7683c833e1"><path d="M 142.527344 0.167969 C 150.6875 0.167969 158.851562 5.609375 158.851562 13.769531 L 158.851562 52.148438 C 158.851562 60.3125 150.6875 68.472656 142.527344 68.472656 L 58.089844 68.472656 L 28.164062 95.679688 L 28.164062 68.472656 L 17.28125 68.472656 C 9.121094 68.472656 0.957031 60.3125 0.957031 52.148438 L 0.957031 13.769531 C 0.957031 5.609375 9.121094 0.167969 17.28125 0.167969 Z M 142.527344 0.167969 " clip-rule="nonzero"/></clipPath><clipPath id="3ca485ddbc"><rect x="0" width="159" y="0" height="96"/></clipPath><clipPath id="769764b6a5"><path d="M 428.957031 39.167969 L 587 39.167969 L 587 135 L 428.957031 135 Z M 428.957031 39.167969 " clip-rule="nonzero"/></clipPath><clipPath id="1ff53bcb72"><path d="M 570.519531 39.167969 C 578.679688 39.167969 586.839844 44.609375 586.839844 52.773438 L 586.839844 91.148438 C 586.839844 99.308594 578.679688 107.472656 570.519531 107.472656 L 486.085938 107.472656 L 456.164062 134.675781 L 456.164062 107.472656 L 445.28125 107.472656 C 437.117188 107.472656 428.957031 99.308594 428.957031 91.148438 L 428.957031 52.773438 C 428.957031 44.609375 437.117188 39.167969 445.28125 39.167969 Z M 570.519531 39.167969 " clip-rule="nonzero"/></clipPath><clipPath id="1eb4843ed9"><path d="M 170.257812 20.03125 L 328.449219 20.03125 L 328.449219 115.542969 L 170.257812 115.542969 Z M 170.257812 20.03125 " clip-rule="nonzero"/></clipPath><clipPath id="efcbf67bc0"><path d="M 311.828125 20.03125 C 319.988281 20.03125 328.152344 25.472656 328.152344 33.632812 L 328.152344 72.011719 C 328.152344 80.175781 319.988281 88.335938 311.828125 88.335938 L 227.390625 88.335938 L 197.464844 115.542969 L 197.464844 88.335938 L 186.582031 88.335938 C 178.417969 88.335938 170.257812 80.175781 170.257812 72.011719 L 170.257812 33.632812 C 170.257812 25.472656 178.417969 20.03125 186.582031 20.03125 Z M 311.828125 20.03125 " clip-rule="nonzero"/></clipPath><clipPath id="5df1c44214"><path d="M 0.257812 0.03125 L 158.164062 0.03125 L 158.164062 95.542969 L 0.257812 95.542969 Z M 0.257812 0.03125 " clip-rule="nonzero"/></clipPath><clipPath id="7bcda0a133"><path d="M 141.828125 0.03125 C 149.988281 0.03125 158.152344 5.472656 158.152344 13.632812 L 158.152344 52.011719 C 158.152344 60.175781 149.988281 68.335938 141.828125 68.335938 L 57.390625 68.335938 L 27.464844 95.542969 L 27.464844 68.335938 L 16.582031 68.335938 C 8.417969 68.335938 0.257812 60.175781 0.257812 52.011719 L 0.257812 13.632812 C 0.257812 5.472656 8.417969 0.03125 16.582031 0.03125 Z M 141.828125 0.03125 " clip-rule="nonzero"/></clipPath><clipPath id="0aec45fd97"><rect x="0" width="159" y="0" height="96"/></clipPath><clipPath id="19367791c5"><path d="M 170.257812 20.03125 L 328.316406 20.03125 L 328.316406 115.914062 L 170.257812 115.914062 Z M 170.257812 20.03125 " clip-rule="nonzero"/></clipPath><clipPath id="6de816c828"><path d="M 311.820312 20.03125 C 319.980469 20.03125 328.140625 25.472656 328.140625 33.632812 L 328.140625 72.011719 C 328.140625 80.171875 319.980469 88.332031 311.820312 88.332031 L 227.386719 88.332031 L 197.460938 115.539062 L 197.460938 88.332031 L 186.582031 88.332031 C 178.417969 88.332031 170.257812 80.171875 170.257812 72.011719 L 170.257812 33.632812 C 170.257812 25.472656 178.417969 20.03125 186.582031 20.03125 Z M 311.820312 20.03125 " clip-rule="nonzero"/></clipPath><clipPath id="cc3c7bddaf"><path d="M 356.746094 343.25 L 514.941406 343.25 L 514.941406 438.765625 L 356.746094 438.765625 Z M 356.746094 343.25 " clip-rule="nonzero"/></clipPath><clipPath id="8e7c6b6121"><path d="M 498.316406 343.25 C 506.480469 343.25 514.640625 348.691406 514.640625 356.855469 L 514.640625 395.234375 C 514.640625 403.394531 506.480469 411.558594 498.316406 411.558594 L 413.882812 411.558594 L 383.953125 438.765625 L 383.953125 411.558594 L 373.070312 411.558594 C 364.910156 411.558594 356.746094 403.394531 356.746094 395.234375 L 356.746094 356.855469 C 356.746094 348.691406 364.910156 343.25 373.070312 343.25 Z M 498.316406 343.25 " clip-rule="nonzero"/></clipPath><clipPath id="1d4f831724"><path d="M 0.746094 0.25 L 158.660156 0.25 L 158.660156 95.765625 L 0.746094 95.765625 Z M 0.746094 0.25 " clip-rule="nonzero"/></clipPath><clipPath id="e0cc39ec5e"><path d="M 142.316406 0.25 C 150.480469 0.25 158.640625 5.691406 158.640625 13.855469 L 158.640625 52.234375 C 158.640625 60.394531 150.480469 68.558594 142.316406 68.558594 L 57.882812 68.558594 L 27.953125 95.765625 L 27.953125 68.558594 L 17.070312 68.558594 C 8.910156 68.558594 0.746094 60.394531 0.746094 52.234375 L 0.746094 13.855469 C 0.746094 5.691406 8.910156 0.25 17.070312 0.25 Z M 142.316406 0.25 " clip-rule="nonzero"/></clipPath><clipPath id="832913a727"><rect x="0" width="159" y="0" height="96"/></clipPath><clipPath id="9c116b72a3"><path d="M 356.746094 343.253906 L 514.808594 343.253906 L 514.808594 439 L 356.746094 439 Z M 356.746094 343.253906 " clip-rule="nonzero"/></clipPath><clipPath id="f1591bd426"><path d="M 498.308594 343.253906 C 506.472656 343.253906 514.632812 348.695312 514.632812 356.855469 L 514.632812 395.234375 C 514.632812 403.394531 506.472656 411.554688 498.308594 411.554688 L 413.878906 411.554688 L 383.953125 438.761719 L 383.953125 411.554688 L 373.070312 411.554688 C 364.910156 411.554688 356.746094 403.394531 356.746094 395.234375 L 356.746094 356.855469 C 356.746094 348.695312 364.910156 343.253906 373.070312 343.253906 Z M 498.308594 343.253906 " clip-rule="nonzero"/></clipPath></defs><g clip-path="url(#f15d43d812)"><g transform="matrix(1, 0, 0, 1, 0, 100)"><g clip-path="url(#3de4580ff8)"><g clip-path="url(#6e1f4c5730)"><path fill="#0cc0df" d="M 0 0.933594 L 518.953125 0.933594 L 518.953125 68.921875 L 0 68.921875 Z M 0 0.933594 " fill-opacity="1" fill-rule="nonzero"/></g></g></g></g><g clip-path="url(#5841c745a0)"><g transform="matrix(1, 0, 0, 1, 0, 205)"><g clip-path="url(#f7c1620576)"><g clip-path="url(#ca5e4d4419)"><path fill="#0cc0df" d="M 0 0.09375 L 518.953125 0.09375 L 518.953125 68.085938 L 0 68.085938 Z M 0 0.09375 " fill-opacity="1" fill-rule="nonzero"/></g></g></g></g><g clip-path="url(#1c3d540205)"><g transform="matrix(1, 0, 0, 1, 0, 309)"><g clip-path="url(#b11766ab30)"><g clip-path="url(#d16d415b37)"><path fill="#0cc0df" d="M 0 0.257812 L 518.953125 0.257812 L 518.953125 68.246094 L 0 68.246094 Z M 0 0.257812 " fill-opacity="1" fill-rule="nonzero"/></g></g></g></g><g clip-path="url(#cbd7077924)"><g transform="matrix(1, 0, 0, 1, 0, 413)"><g clip-path="url(#326b3430a1)"><g clip-path="url(#cedb662874)"><path fill="#0cc0df" d="M 0 0.417969 L 518.953125 0.417969 L 518.953125 68.410156 L 0 68.410156 Z M 0 0.417969 " fill-opacity="1" fill-rule="nonzero"/></g></g></g></g><g clip-path="url(#c0f332117c)"><g transform="matrix(1, 0, 0, 1, 0, 517)"><g clip-path="url(#3b4930fdf7)"><g clip-path="url(#5f47c1c67e)"><path fill="#0cc0df" d="M 0 0.582031 L 518.953125 0.582031 L 518.953125 68.570312 L 0 68.570312 Z M 0 0.582031 " fill-opacity="1" fill-rule="nonzero"/></g></g></g></g><g clip-path="url(#61fc10bd62)"><g transform="matrix(1, 0, 0, 1, 259, 205)"><g clip-path="url(#ed612b649a)"><g clip-path="url(#f3d7389f3d)"><path fill="#b4b4b4" d="M 0.453125 0.367188 L 259.929688 0.367188 L 259.929688 68.359375 L 0.453125 68.359375 Z M 0.453125 0.367188 " fill-opacity="1" fill-rule="nonzero"/></g></g></g></g><g clip-path="url(#73b40f040f)"><g transform="matrix(1, 0, 0, 1, 259, 309)"><g clip-path="url(#c5246b2177)"><g clip-path="url(#23ddc9d534)"><path fill="#b4b4b4" d="M 0.453125 0.257812 L 259.929688 0.257812 L 259.929688 68.246094 L 0.453125 68.246094 Z M 0.453125 0.257812 " fill-opacity="1" fill-rule="nonzero"/></g></g></g></g><path stroke-linecap="butt" transform="matrix(0, 0.749099, -0.749099, 0, 262.444854, 205.099602)" fill="none" stroke-linejoin="miter" d="M -0.00259715 3.998987 L 90.76275 3.998987 " stroke="#000000" stroke-width="8" stroke-opacity="1" stroke-miterlimit="4"/><g clip-path="url(#28d5152d10)"><g transform="matrix(1, 0, 0, 1, 0, 308)"><g clip-path="url(#5c5ae73eae)"><g clip-path="url(#fe406d76dc)"><path fill="#b4b4b4" d="M 0 0.984375 L 129.605469 0.984375 L 129.605469 68.972656 L 0 68.972656 Z M 0 0.984375 " fill-opacity="1" fill-rule="nonzero"/></g></g></g></g><path stroke-linecap="butt" transform="matrix(0, 0.749099, -0.749099, 0, 132.718313, 309.534426)" fill="none" stroke-linejoin="miter" d="M 0.00097465 3.999016 L 90.761107 3.999016 " stroke="#000000" stroke-width="8" stroke-opacity="1" stroke-miterlimit="4"/><g clip-path="url(#19483e10ff)"><g transform="matrix(1, 0, 0, 1, 194, 413)"><g clip-path="url(#8a5b79fd53)"><g clip-path="url(#ab17910337)"><path fill="#b4b4b4" d="M 0.589844 0.144531 L 324.871094 0.144531 L 324.871094 68.136719 L 0.589844 68.136719 Z M 0.589844 0.144531 " fill-opacity="1" fill-rule="nonzero"/></g></g></g></g><g clip-path="url(#cbc8c32bcb)"><g transform="matrix(1, 0, 0, 1, 0, 413)"><g clip-path="url(#25a48a2a66)"><g clip-path="url(#258af42e85)"><path fill="#b4b4b4" d="M 0 0.144531 L 129.605469 0.144531 L 129.605469 68.136719 L 0 68.136719 Z M 0 0.144531 " fill-opacity="1" fill-rule="nonzero"/></g></g></g></g><path stroke-linecap="butt" transform="matrix(0, 0.749099, -0.749099, 0, 197.581599, 413.423487)" fill="none" stroke-linejoin="miter" d="M -0.0021523 3.999022 L 90.763194 3.999022 " stroke="#000000" stroke-width="8" stroke-opacity="1" stroke-miterlimit="4"/><g clip-path="url(#a909913fc7)"><g transform="matrix(1, 0, 0, 1, 0, 517)"><g clip-path="url(#ce2b853b38)"><g clip-path="url(#82c735ee72)"><path fill="#b4b4b4" d="M 0 0.308594 L 162.804688 0.308594 L 162.804688 68.296875 L 0 68.296875 Z M 0 0.308594 " fill-opacity="1" fill-rule="nonzero"/></g></g></g></g><g clip-path="url(#a2e25b0555)"><g transform="matrix(1, 0, 0, 1, 194, 517)"><g clip-path="url(#77734ad5b0)"><g clip-path="url(#fd869e351d)"><path fill="#b4b4b4" d="M 0.589844 0.308594 L 324.871094 0.308594 L 324.871094 68.296875 L 0.589844 68.296875 Z M 0.589844 0.308594 " fill-opacity="1" fill-rule="nonzero"/></g></g></g></g><path stroke-linecap="butt" transform="matrix(0, 0.749099, -0.749099, 0, 165.70238, 517.873495)" fill="none" stroke-linejoin="miter" d="M 0.00200911 3.998604 L 90.762141 3.998604 " stroke="#000000" stroke-width="8" stroke-opacity="1" stroke-miterlimit="4"/><g clip-path="url(#da8f412d80)"><g transform="matrix(1, 0, 0, 1, 0, 622)"><g clip-path="url(#29037e4342)"><g clip-path="url(#9a232c3a81)"><path fill="#0cc0df" d="M 0 0.0898438 L 518.953125 0.0898438 L 518.953125 68.078125 L 0 68.078125 Z M 0 0.0898438 " fill-opacity="1" fill-rule="nonzero"/></g></g></g></g><g clip-path="url(#c137210c24)"><g transform="matrix(1, 0, 0, 1, 0, 621)"><g clip-path="url(#2fbaae6148)"><g clip-path="url(#cbd5b4f5b1)"><path fill="#b4b4b4" d="M 0 0.816406 L 178.738281 0.816406 L 178.738281 68.804688 L 0 68.804688 Z M 0 0.816406 " fill-opacity="1" fill-rule="nonzero"/></g></g></g></g><g clip-path="url(#afa037c44a)"><g transform="matrix(1, 0, 0, 1, 194, 621)"><g clip-path="url(#c1d7aaf93d)"><g clip-path="url(#d4751b72c1)"><path fill="#b4b4b4" d="M 0.589844 0.816406 L 324.871094 0.816406 L 324.871094 68.804688 L 0.589844 68.804688 Z M 0.589844 0.816406 " fill-opacity="1" fill-rule="nonzero"/></g></g></g></g><g clip-path="url(#3b04da6f75)"><path stroke-linecap="butt" transform="matrix(0, 0.749099, -0.749099, 0, 181.642434, 621.531712)" fill="none" stroke-linejoin="miter" d="M -0.000616112 4.002014 L 91.510419 4.002014 " stroke="#000000" stroke-width="8" stroke-opacity="1" stroke-miterlimit="4"/></g><g clip-path="url(#76283bf3a9)"><path stroke-linecap="butt" transform="matrix(0, 0.749099, -0.749099, 0, 191.109973, 621.532167)" fill="none" stroke-linejoin="miter" d="M -0.00122411 4.000397 L 90.764123 4.000397 " stroke="#ff3131" stroke-width="8" stroke-opacity="1" stroke-miterlimit="4"/></g><path stroke-linecap="butt" transform="matrix(0, 0.749099, -0.749099, 0, 191.109973, 517.31257)" fill="none" stroke-linejoin="miter" d="M -0.000093453 4.000397 L 90.760039 4.000397 " stroke="#ff3131" stroke-width="8" stroke-opacity="1" stroke-miterlimit="4"/><path stroke-linecap="butt" transform="matrix(0, 0.749099, -0.749099, 0, 191.109973, 413.423487)" fill="none" stroke-linejoin="miter" d="M -0.0021523 4.000397 L 90.763194 4.000397 " stroke="#ff3131" stroke-width="8" stroke-opacity="1" stroke-miterlimit="4"/><path stroke-linecap="butt" transform="matrix(0, 0.749099, -0.749099, 0, 191.109973, 309.534426)" fill="none" stroke-linejoin="miter" d="M 0.00097465 4.000397 L 90.761107 4.000397 " stroke="#ff3131" stroke-width="8" stroke-opacity="1" stroke-miterlimit="4"/><path stroke-linecap="butt" transform="matrix(0, 0.749099, -0.749099, 0, 191.109973, 205.099602)" fill="none" stroke-linejoin="miter" d="M -0.00259715 4.000397 L 90.76275 4.000397 " stroke="#ff3131" stroke-width="8" stroke-opacity="1" stroke-miterlimit="4"/><path stroke-linecap="butt" transform="matrix(0, 0.749099, -0.749099, 0, 191.109973, 100.937658)" fill="none" stroke-linejoin="miter" d="M -0.000210677 4.000397 L 90.759921 4.000397 " stroke="#ff3131" stroke-width="8" stroke-opacity="1" stroke-miterlimit="4"/><g clip-path="url(#650267618b)"><g clip-path="url(#f93ff83fb4)"><g transform="matrix(1, 0, 0, 1, 240, 135)"><g clip-path="url(#48c1323836)"><g clip-path="url(#c25a4a88c9)"><g clip-path="url(#ab85d8e4ee)"><path fill="#ffffff" d="M 0.476562 0.0898438 L 158.296875 0.0898438 L 158.296875 95.601562 L 0.476562 95.601562 Z M 0.476562 0.0898438 " fill-opacity="1" fill-rule="nonzero"/></g></g></g></g></g></g><g clip-path="url(#c77c1f801e)"><g clip-path="url(#b0c014aca4)"><path stroke-linecap="butt" transform="matrix(0.749099, 0, 0, 0.749099, 240.477774, 135.091399)" fill="none" stroke-linejoin="miter" d="M 188.975527 -0.00207646 C 199.868829 -0.00207646 210.767345 7.261863 210.767345 18.160379 L 210.767345 69.38862 C 210.767345 80.281922 199.868829 91.180438 188.975527 91.180438 L 76.267139 91.180438 L 36.31808 127.49492 L 36.31808 91.180438 L 21.790201 91.180438 C 10.8969 91.180438 -0.0016167 80.281922 -0.0016167 69.38862 L -0.0016167 18.160379 C -0.0016167 7.261863 10.8969 -0.00207646 21.790201 -0.00207646 Z M 188.975527 -0.00207646 " stroke="#000000" stroke-width="6" stroke-opacity="1" stroke-miterlimit="4"/></g></g><g fill="#000000" fill-opacity="1"><g transform="translate(268.475331, 182.888317)"><g><path d="M 18.0625 -10.796875 L 28.140625 -10.796875 L 28.140625 -20.09375 L 18.0625 -20.09375 Z M 5.671875 -10.796875 L 15.71875 -10.796875 L 15.71875 -20.09375 L 5.671875 -20.09375 Z M 18.0625 -22.3125 L 30.453125 -22.3125 L 30.453125 -6.59375 L 28.140625 -6.59375 L 28.140625 -8.5625 L 18.0625 -8.5625 L 18.0625 2.515625 L 15.71875 2.515625 L 15.71875 -8.5625 L 5.671875 -8.5625 L 5.671875 -6.421875 L 3.421875 -6.421875 L 3.421875 -22.3125 L 15.71875 -22.3125 L 15.71875 -28.390625 L 18.0625 -28.390625 Z M 18.0625 -22.3125 "/></g></g></g><g fill="#000000" fill-opacity="1"><g transform="translate(302.430574, 182.888317)"><g><path d="M 7.90625 -12.421875 L 15.28125 -12.421875 C 15.4375 -13.285156 15.539062 -14.144531 15.59375 -15 C 15.65625 -15.863281 15.6875 -16.726562 15.6875 -17.59375 L 15.6875 -21.421875 L 7.90625 -21.421875 Z M 26.25 -21.421875 L 17.96875 -21.421875 L 17.96875 -17.59375 C 17.96875 -16.726562 17.941406 -15.863281 17.890625 -15 C 17.847656 -14.144531 17.75 -13.285156 17.59375 -12.421875 L 26.25 -12.421875 Z M 32.078125 -10.21875 L 19.109375 -10.21875 C 20.265625 -7.414062 21.976562 -5.109375 24.25 -3.296875 C 26.53125 -1.484375 29.378906 -0.203125 32.796875 0.546875 C 32.566406 0.765625 32.316406 1.070312 32.046875 1.46875 C 31.773438 1.875 31.550781 2.234375 31.375 2.546875 C 27.769531 1.617188 24.789062 0.125 22.4375 -1.9375 C 20.082031 -4 18.273438 -6.644531 17.015625 -9.875 C 16.535156 -8.226562 15.757812 -6.632812 14.6875 -5.09375 C 13.613281 -3.550781 12.125 -2.128906 10.21875 -0.828125 C 8.320312 0.472656 5.878906 1.628906 2.890625 2.640625 C 2.796875 2.367188 2.617188 2.035156 2.359375 1.640625 C 2.097656 1.242188 1.851562 0.9375 1.625 0.71875 C 4.34375 -0.1875 6.578125 -1.21875 8.328125 -2.375 C 10.085938 -3.53125 11.46875 -4.769531 12.46875 -6.09375 C 13.476562 -7.414062 14.222656 -8.789062 14.703125 -10.21875 L 1.90625 -10.21875 L 1.90625 -12.421875 L 5.671875 -12.421875 L 5.671875 -23.59375 L 15.6875 -23.59375 L 15.6875 -28.390625 L 17.96875 -28.390625 L 17.96875 -23.59375 L 28.59375 -23.59375 L 28.59375 -12.421875 L 32.078125 -12.421875 Z M 32.078125 -10.21875 "/></g></g></g><g fill="#000000" fill-opacity="1"><g transform="translate(336.385817, 182.888317)"><g><path d="M 28.109375 -15.109375 L 28.109375 -18.03125 L 18.984375 -18.03125 L 18.984375 -15.109375 Z M 28.109375 -10.453125 L 28.109375 -13.40625 L 18.984375 -13.40625 L 18.984375 -10.453125 Z M 28.109375 -5.734375 L 28.109375 -8.765625 L 18.984375 -8.765625 L 18.984375 -5.734375 Z M 16.84375 -19.796875 L 20.75 -19.796875 C 20.8125 -20.242188 20.875 -20.722656 20.9375 -21.234375 C 21.007812 -21.742188 21.070312 -22.269531 21.125 -22.8125 L 11.890625 -22.8125 L 11.890625 -24.8125 L 21.28125 -24.8125 C 21.351562 -25.425781 21.410156 -26.03125 21.453125 -26.625 C 21.503906 -27.226562 21.539062 -27.800781 21.5625 -28.34375 L 23.828125 -28.21875 C 23.785156 -27.695312 23.734375 -27.144531 23.671875 -26.5625 C 23.617188 -25.988281 23.5625 -25.40625 23.5 -24.8125 L 32.25 -24.8125 L 32.25 -22.8125 L 23.296875 -22.8125 C 23.222656 -22.269531 23.148438 -21.742188 23.078125 -21.234375 C 23.015625 -20.722656 22.953125 -20.242188 22.890625 -19.796875 L 30.28125 -19.796875 L 30.28125 -3.96875 L 16.84375 -3.96875 Z M 9.203125 -28.25 L 11.3125 -27.640625 C 10.351562 -25.097656 9.1875 -22.664062 7.8125 -20.34375 L 7.8125 2.484375 L 5.640625 2.484375 L 5.640625 -16.9375 C 5.066406 -16.101562 4.472656 -15.3125 3.859375 -14.5625 C 3.253906 -13.820312 2.632812 -13.117188 2 -12.453125 C 1.882812 -12.703125 1.691406 -13.070312 1.421875 -13.5625 C 1.148438 -14.050781 0.898438 -14.410156 0.671875 -14.640625 C 1.804688 -15.742188 2.898438 -17.019531 3.953125 -18.46875 C 5.003906 -19.914062 5.984375 -21.472656 6.890625 -23.140625 C 7.796875 -24.804688 8.566406 -26.507812 9.203125 -28.25 Z M 32.453125 -1.15625 L 32.453125 0.8125 L 13.6875 0.8125 L 13.6875 2.484375 L 11.578125 2.484375 L 11.578125 -18.125 L 13.6875 -18.125 L 13.6875 -1.15625 Z M 32.453125 -1.15625 "/></g></g></g><g clip-path="url(#d21e2d1c84)"><g clip-path="url(#696a0aea69)"><g transform="matrix(1, 0, 0, 1, 428, 39)"><g clip-path="url(#3ca485ddbc)"><g clip-path="url(#20fdd42dda)"><g clip-path="url(#7683c833e1)"><path fill="#ffffff" d="M 0.957031 0.167969 L 158.777344 0.167969 L 158.777344 95.679688 L 0.957031 95.679688 Z M 0.957031 0.167969 " fill-opacity="1" fill-rule="nonzero"/></g></g></g></g></g></g><g clip-path="url(#769764b6a5)"><g clip-path="url(#1ff53bcb72)"><path stroke-linecap="butt" transform="matrix(0.749099, 0, 0, 0.749099, 428.957284, 39.169545)" fill="none" stroke-linejoin="miter" d="M 188.976806 -0.00210459 C 199.870108 -0.00210459 210.76341 7.261835 210.76341 18.160351 L 210.76341 69.388592 C 210.76341 80.281894 199.870108 91.18041 188.976806 91.18041 L 76.263204 91.18041 L 36.319359 127.494892 L 36.319359 91.18041 L 21.791481 91.18041 C 10.892964 91.18041 -0.000337434 80.281894 -0.000337434 69.388592 L -0.000337434 18.160351 C -0.000337434 7.261835 10.892964 -0.00210459 21.791481 -0.00210459 Z M 188.976806 -0.00210459 " stroke="#000000" stroke-width="6" stroke-opacity="1" stroke-miterlimit="4"/></g></g><g fill="#000000" fill-opacity="1"><g transform="translate(439.983078, 86.966457)"><g><path d="M 23.59375 -23.359375 L 25.671875 -23.359375 L 25.671875 -17.21875 C 25.671875 -16.851562 25.734375 -16.617188 25.859375 -16.515625 C 25.984375 -16.410156 26.257812 -16.359375 26.6875 -16.359375 L 29.640625 -16.359375 C 29.910156 -16.359375 30.113281 -16.425781 30.25 -16.5625 C 30.382812 -16.695312 30.476562 -16.976562 30.53125 -17.40625 C 30.59375 -17.84375 30.632812 -18.503906 30.65625 -19.390625 C 30.882812 -19.234375 31.171875 -19.082031 31.515625 -18.9375 C 31.867188 -18.800781 32.195312 -18.703125 32.5 -18.640625 C 32.40625 -16.984375 32.171875 -15.878906 31.796875 -15.328125 C 31.421875 -14.773438 30.789062 -14.5 29.90625 -14.5 L 26.453125 -14.5 C 25.296875 -14.5 24.53125 -14.6875 24.15625 -15.0625 C 23.78125 -15.4375 23.59375 -16.144531 23.59375 -17.1875 Z M 14.765625 -24.453125 L 14.765625 -20.546875 L 12.796875 -20.546875 L 12.796875 -26.453125 L 31.78125 -26.453125 L 31.78125 -20.640625 L 29.75 -20.640625 L 29.75 -24.453125 Z M 18.234375 -23.296875 L 20.34375 -23.296875 C 20.226562 -21.546875 19.953125 -20.054688 19.515625 -18.828125 C 19.085938 -17.597656 18.378906 -16.566406 17.390625 -15.734375 C 16.410156 -14.910156 15.003906 -14.25 13.171875 -13.75 C 13.078125 -14 12.910156 -14.28125 12.671875 -14.59375 C 12.441406 -14.914062 12.222656 -15.164062 12.015625 -15.34375 C 13.648438 -15.769531 14.890625 -16.316406 15.734375 -16.984375 C 16.585938 -17.660156 17.191406 -18.507812 17.546875 -19.53125 C 17.910156 -20.5625 18.140625 -21.816406 18.234375 -23.296875 Z M 11.78125 -11.953125 L 7.984375 -10.65625 L 7.984375 -0.140625 C 7.984375 0.492188 7.898438 0.992188 7.734375 1.359375 C 7.578125 1.722656 7.296875 1.992188 6.890625 2.171875 C 6.523438 2.328125 6.007812 2.429688 5.34375 2.484375 C 4.675781 2.546875 3.8125 2.566406 2.75 2.546875 C 2.707031 2.296875 2.625 1.960938 2.5 1.546875 C 2.375 1.128906 2.234375 0.769531 2.078125 0.46875 C 2.835938 0.5 3.507812 0.519531 4.09375 0.53125 C 4.6875 0.539062 5.085938 0.535156 5.296875 0.515625 C 5.523438 0.515625 5.679688 0.46875 5.765625 0.375 C 5.859375 0.28125 5.90625 0.109375 5.90625 -0.140625 L 5.90625 -9.984375 C 5.132812 -9.734375 4.394531 -9.488281 3.6875 -9.25 C 2.988281 -9.007812 2.328125 -8.789062 1.703125 -8.59375 L 1.09375 -10.765625 C 1.75 -10.941406 2.488281 -11.15625 3.3125 -11.40625 C 4.132812 -11.65625 5 -11.925781 5.90625 -12.21875 L 5.90625 -19.390625 L 1.5625 -19.390625 L 1.5625 -21.453125 L 5.90625 -21.453125 L 5.90625 -28.34375 L 7.984375 -28.34375 L 7.984375 -21.453125 L 11.78125 -21.453125 L 11.78125 -19.390625 L 7.984375 -19.390625 L 7.984375 -12.90625 C 8.566406 -13.082031 9.148438 -13.265625 9.734375 -13.453125 C 10.328125 -13.648438 10.90625 -13.851562 11.46875 -14.0625 Z M 32.078125 -8.9375 L 24.65625 -8.9375 C 25.3125 -7.820312 26.082031 -6.75 26.96875 -5.71875 C 27.863281 -4.6875 28.832031 -3.757812 29.875 -2.9375 C 30.914062 -2.113281 31.96875 -1.425781 33.03125 -0.875 C 32.8125 -0.675781 32.539062 -0.40625 32.21875 -0.0625 C 31.90625 0.269531 31.65625 0.570312 31.46875 0.84375 C 29.90625 -0.03125 28.382812 -1.238281 26.90625 -2.78125 C 25.425781 -4.320312 24.164062 -5.988281 23.125 -7.78125 L 23.125 2.546875 L 20.921875 2.546875 L 20.921875 -7.703125 C 19.828125 -5.828125 18.492188 -4.125 16.921875 -2.59375 C 15.347656 -1.070312 13.671875 0.128906 11.890625 1.015625 C 11.722656 0.765625 11.5 0.460938 11.21875 0.109375 C 10.9375 -0.234375 10.671875 -0.507812 10.421875 -0.71875 C 12.210938 -1.488281 13.910156 -2.601562 15.515625 -4.0625 C 17.117188 -5.519531 18.410156 -7.144531 19.390625 -8.9375 L 12.1875 -8.9375 L 12.1875 -11 L 20.921875 -11 L 20.921875 -14.703125 L 23.125 -14.703125 L 23.125 -11 L 32.078125 -11 Z M 32.078125 -8.9375 "/></g></g></g><g fill="#000000" fill-opacity="1"><g transform="translate(473.938321, 86.966457)"><g><path d="M 10.015625 -4.71875 L 12.15625 -3.9375 C 11.382812 -3.164062 10.503906 -2.40625 9.515625 -1.65625 C 8.535156 -0.914062 7.519531 -0.21875 6.46875 0.4375 C 5.414062 1.09375 4.398438 1.671875 3.421875 2.171875 C 3.242188 1.972656 2.972656 1.703125 2.609375 1.359375 C 2.253906 1.015625 1.9375 0.753906 1.65625 0.578125 C 3.175781 -0.078125 4.691406 -0.875 6.203125 -1.8125 C 7.722656 -2.75 8.992188 -3.71875 10.015625 -4.71875 Z M 27.84375 -6.171875 L 18.03125 -5.90625 L 18.03125 2.609375 L 15.828125 2.609375 L 15.828125 -5.84375 C 13.285156 -5.769531 10.867188 -5.710938 8.578125 -5.671875 C 6.296875 -5.628906 4.265625 -5.582031 2.484375 -5.53125 L 2.34375 -7.640625 C 3.425781 -7.640625 4.625 -7.640625 5.9375 -7.640625 C 7.25 -7.640625 8.644531 -7.648438 10.125 -7.671875 C 10.53125 -7.921875 10.941406 -8.175781 11.359375 -8.4375 C 11.773438 -8.695312 12.195312 -8.960938 12.625 -9.234375 C 11.789062 -9.890625 10.773438 -10.597656 9.578125 -11.359375 C 8.378906 -12.117188 7.222656 -12.78125 6.109375 -13.34375 L 7.609375 -14.640625 C 7.898438 -14.503906 8.195312 -14.359375 8.5 -14.203125 C 8.8125 -14.054688 9.113281 -13.894531 9.40625 -13.71875 C 10.195312 -14.300781 11.007812 -14.976562 11.84375 -15.75 C 12.6875 -16.519531 13.425781 -17.234375 14.0625 -17.890625 L 4.75 -17.890625 L 4.75 -13.609375 L 2.640625 -13.609375 L 2.640625 -19.828125 L 15.78125 -19.828125 L 15.78125 -23.328125 L 2.71875 -23.328125 L 2.71875 -25.328125 L 15.78125 -25.328125 L 15.78125 -28.390625 L 18 -28.390625 L 18 -25.328125 L 31.171875 -25.328125 L 31.171875 -23.328125 L 18 -23.328125 L 18 -19.828125 L 31.4375 -19.828125 L 31.4375 -13.609375 L 29.265625 -13.609375 L 29.265625 -17.890625 L 15.484375 -17.890625 L 16.5625 -17.390625 C 15.726562 -16.566406 14.832031 -15.75 13.875 -14.9375 C 12.925781 -14.125 11.988281 -13.390625 11.0625 -12.734375 C 11.71875 -12.367188 12.332031 -11.988281 12.90625 -11.59375 C 13.488281 -11.195312 14.007812 -10.828125 14.46875 -10.484375 C 15.820312 -11.421875 17.140625 -12.390625 18.421875 -13.390625 C 19.703125 -14.398438 20.804688 -15.335938 21.734375 -16.203125 L 23.828125 -15.078125 C 22.359375 -13.878906 20.71875 -12.625 18.90625 -11.3125 C 17.101562 -10 15.335938 -8.796875 13.609375 -7.703125 C 15.492188 -7.753906 17.441406 -7.789062 19.453125 -7.8125 C 21.472656 -7.832031 23.5 -7.863281 25.53125 -7.90625 C 24.832031 -8.425781 24.117188 -8.925781 23.390625 -9.40625 C 22.671875 -9.882812 21.96875 -10.3125 21.28125 -10.6875 L 22.78125 -11.890625 C 23.800781 -11.316406 24.859375 -10.660156 25.953125 -9.921875 C 27.054688 -9.191406 28.097656 -8.460938 29.078125 -7.734375 C 30.066406 -7.015625 30.878906 -6.347656 31.515625 -5.734375 L 29.90625 -4.34375 C 29.632812 -4.613281 29.320312 -4.898438 28.96875 -5.203125 C 28.625 -5.515625 28.25 -5.835938 27.84375 -6.171875 Z M 21.53125 -3.5 L 23.21875 -4.65625 C 24.21875 -4.195312 25.253906 -3.65625 26.328125 -3.03125 C 27.398438 -2.414062 28.414062 -1.78125 29.375 -1.125 C 30.34375 -0.46875 31.144531 0.144531 31.78125 0.71875 L 29.90625 2.109375 C 29.34375 1.535156 28.59375 0.914062 27.65625 0.25 C 26.71875 -0.414062 25.707031 -1.082031 24.625 -1.75 C 23.550781 -2.414062 22.519531 -3 21.53125 -3.5 Z M 21.53125 -3.5 "/></g></g></g><g fill="#000000" fill-opacity="1"><g transform="translate(507.893564, 86.966457)"><g><path d="M 22.109375 -23.765625 L 19.25 -23.765625 C 18.769531 -23.128906 18.265625 -22.519531 17.734375 -21.9375 C 17.203125 -21.363281 16.664062 -20.851562 16.125 -20.40625 C 15.894531 -20.582031 15.578125 -20.785156 15.171875 -21.015625 C 14.765625 -21.242188 14.425781 -21.425781 14.15625 -21.5625 C 15.289062 -22.394531 16.332031 -23.421875 17.28125 -24.640625 C 18.226562 -25.867188 18.960938 -27.160156 19.484375 -28.515625 L 21.65625 -27.984375 C 21.363281 -27.210938 20.992188 -26.460938 20.546875 -25.734375 L 32.25 -25.734375 L 32.25 -23.765625 L 24.515625 -23.765625 C 25.367188 -22.722656 26.003906 -21.757812 26.421875 -20.875 L 24.40625 -20.203125 C 24.207031 -20.679688 23.890625 -21.25 23.453125 -21.90625 C 23.023438 -22.5625 22.578125 -23.179688 22.109375 -23.765625 Z M 7.875 -23.765625 L 6.171875 -23.765625 C 5.242188 -22.335938 4.257812 -21.128906 3.21875 -20.140625 C 3.019531 -20.316406 2.734375 -20.53125 2.359375 -20.78125 C 1.984375 -21.03125 1.660156 -21.222656 1.390625 -21.359375 C 2.410156 -22.265625 3.351562 -23.347656 4.21875 -24.609375 C 5.09375 -25.878906 5.789062 -27.179688 6.3125 -28.515625 L 8.421875 -27.9375 C 8.265625 -27.582031 8.097656 -27.21875 7.921875 -26.84375 C 7.753906 -26.46875 7.570312 -26.097656 7.375 -25.734375 L 16.53125 -25.734375 L 16.53125 -23.765625 L 10.078125 -23.765625 C 10.347656 -23.316406 10.597656 -22.851562 10.828125 -22.375 C 11.054688 -21.894531 11.21875 -21.460938 11.3125 -21.078125 L 9.34375 -20.546875 C 9.207031 -20.972656 9 -21.476562 8.71875 -22.0625 C 8.445312 -22.65625 8.164062 -23.222656 7.875 -23.765625 Z M 4.921875 -6.953125 L 8.71875 -6.953125 L 8.71875 -9.40625 L 4.921875 -9.40625 Z M 4.921875 -13.28125 L 4.921875 -10.90625 L 8.71875 -10.90625 L 8.71875 -13.28125 Z M 14.46875 -13.28125 L 10.6875 -13.28125 L 10.6875 -10.90625 L 14.46875 -10.90625 Z M 14.46875 -6.953125 L 14.46875 -9.40625 L 10.6875 -9.40625 L 10.6875 -6.953125 Z M 10.6875 -5.40625 L 10.6875 -3.21875 L 17.71875 -3.21875 L 17.71875 -1.421875 L 10.6875 -1.421875 L 10.6875 2.546875 L 8.71875 2.546875 L 8.71875 -1.421875 L 1.65625 -1.421875 L 1.65625 -3.21875 L 8.71875 -3.21875 L 8.71875 -5.40625 L 3.0625 -5.40625 L 3.0625 -14.796875 L 8.71875 -14.796875 L 8.71875 -16.84375 L 2.203125 -16.84375 L 2.203125 -18.609375 L 8.71875 -18.609375 L 8.71875 -20.40625 L 10.6875 -20.40625 L 10.6875 -18.609375 L 17.25 -18.609375 L 17.25 -16.84375 L 10.6875 -16.84375 L 10.6875 -14.796875 L 16.4375 -14.796875 L 16.4375 -5.40625 Z M 22.8125 0.140625 L 28.765625 0.140625 C 29.253906 0.140625 29.617188 0.0195312 29.859375 -0.21875 C 30.097656 -0.457031 30.273438 -0.90625 30.390625 -1.5625 C 30.503906 -2.21875 30.582031 -3.164062 30.625 -4.40625 C 30.875 -4.25 31.195312 -4.085938 31.59375 -3.921875 C 31.988281 -3.753906 32.332031 -3.632812 32.625 -3.5625 C 32.539062 -2.09375 32.382812 -0.929688 32.15625 -0.078125 C 31.925781 0.765625 31.554688 1.351562 31.046875 1.6875 C 30.535156 2.03125 29.816406 2.203125 28.890625 2.203125 L 22.6875 2.203125 C 21.664062 2.203125 20.863281 2.097656 20.28125 1.890625 C 19.707031 1.691406 19.300781 1.328125 19.0625 0.796875 C 18.820312 0.265625 18.703125 -0.484375 18.703125 -1.453125 L 18.703125 -19.046875 L 30.890625 -19.046875 L 30.890625 -8.890625 C 30.890625 -8.328125 30.8125 -7.863281 30.65625 -7.5 C 30.5 -7.132812 30.179688 -6.863281 29.703125 -6.6875 C 29.253906 -6.507812 28.644531 -6.394531 27.875 -6.34375 C 27.101562 -6.300781 26.117188 -6.28125 24.921875 -6.28125 C 24.847656 -6.59375 24.738281 -6.945312 24.59375 -7.34375 C 24.445312 -7.738281 24.296875 -8.085938 24.140625 -8.390625 C 25.140625 -8.367188 25.992188 -8.359375 26.703125 -8.359375 C 27.421875 -8.359375 27.890625 -8.367188 28.109375 -8.390625 C 28.359375 -8.410156 28.519531 -8.453125 28.59375 -8.515625 C 28.675781 -8.585938 28.71875 -8.726562 28.71875 -8.9375 L 28.71875 -17.046875 L 20.875 -17.046875 L 20.875 -1.421875 C 20.875 -0.785156 20.988281 -0.363281 21.21875 -0.15625 C 21.445312 0.0390625 21.976562 0.140625 22.8125 0.140625 Z M 22.8125 0.140625 "/></g></g></g><g fill="#000000" fill-opacity="1"><g transform="translate(541.848807, 86.966457)"><g><path d="M 14.1875 -11.84375 L 20.0625 -11.84375 L 20.0625 -16.703125 L 14.265625 -16.703125 L 14.265625 -14.21875 C 14.265625 -13.8125 14.253906 -13.410156 14.234375 -13.015625 C 14.222656 -12.617188 14.207031 -12.226562 14.1875 -11.84375 Z M 26.921875 -11.84375 L 26.921875 -9.953125 L 22.109375 -9.953125 L 22.109375 -2.78125 L 20.0625 -2.78125 L 20.0625 -9.953125 L 13.953125 -9.953125 C 13.703125 -8.472656 13.207031 -7.085938 12.46875 -5.796875 C 11.738281 -4.515625 10.59375 -3.375 9.03125 -2.375 C 8.875 -2.601562 8.648438 -2.863281 8.359375 -3.15625 C 8.078125 -3.445312 7.828125 -3.675781 7.609375 -3.84375 C 8.921875 -4.675781 9.90625 -5.609375 10.5625 -6.640625 C 11.21875 -7.671875 11.671875 -8.773438 11.921875 -9.953125 L 7.234375 -9.953125 L 7.234375 -11.84375 L 12.1875 -11.84375 C 12.257812 -12.632812 12.296875 -13.441406 12.296875 -14.265625 L 12.296875 -16.703125 L 7.640625 -16.703125 L 7.640625 -18.609375 L 12.296875 -18.609375 L 12.296875 -22.984375 L 14.265625 -22.984375 L 14.265625 -18.609375 L 20.0625 -18.609375 L 20.0625 -22.984375 L 22.109375 -22.984375 L 22.109375 -18.609375 L 26.828125 -18.609375 L 26.828125 -16.703125 L 22.109375 -16.703125 L 22.109375 -11.84375 Z M 5.234375 -1.09375 L 28.71875 -1.09375 L 28.71875 -24.609375 L 5.234375 -24.609375 Z M 3.015625 -26.75 L 31.03125 -26.75 L 31.03125 2.609375 L 28.71875 2.609375 L 28.71875 0.984375 L 5.234375 0.984375 L 5.234375 2.609375 L 3.015625 2.609375 Z M 3.015625 -26.75 "/></g></g></g><g clip-path="url(#1eb4843ed9)"><g clip-path="url(#efcbf67bc0)"><g transform="matrix(1, 0, 0, 1, 170, 20)"><g clip-path="url(#0aec45fd97)"><g clip-path="url(#5df1c44214)"><g clip-path="url(#7bcda0a133)"><path fill="#ffffff" d="M 0.257812 0.03125 L 158.078125 0.03125 L 158.078125 95.542969 L 0.257812 95.542969 Z M 0.257812 0.03125 " fill-opacity="1" fill-rule="nonzero"/></g></g></g></g></g></g><g clip-path="url(#19367791c5)"><g clip-path="url(#6de816c828)"><path stroke-linecap="butt" transform="matrix(0.749099, 0, 0, 0.749099, 170.258009, 20.03204)" fill="none" stroke-linejoin="miter" d="M 188.976882 -0.0010549 C 199.870183 -0.0010549 210.763485 7.262884 210.763485 18.156186 L 210.763485 69.389642 C 210.763485 80.282944 199.870183 91.176245 188.976882 91.176245 L 76.263279 91.176245 L 36.31422 127.495942 L 36.31422 91.176245 L 21.791556 91.176245 C 10.89304 91.176245 -0.000262066 80.282944 -0.000262066 69.389642 L -0.000262066 18.156186 C -0.000262066 7.262884 10.89304 -0.0010549 21.791556 -0.0010549 Z M 188.976882 -0.0010549 " stroke="#000000" stroke-width="6" stroke-opacity="1" stroke-miterlimit="4"/></g></g><g fill="#000000" fill-opacity="1"><g transform="translate(198.255566, 67.828958)"><g><path d="M 23.59375 -23.359375 L 25.671875 -23.359375 L 25.671875 -17.21875 C 25.671875 -16.851562 25.734375 -16.617188 25.859375 -16.515625 C 25.984375 -16.410156 26.257812 -16.359375 26.6875 -16.359375 L 29.640625 -16.359375 C 29.910156 -16.359375 30.113281 -16.425781 30.25 -16.5625 C 30.382812 -16.695312 30.476562 -16.976562 30.53125 -17.40625 C 30.59375 -17.84375 30.632812 -18.503906 30.65625 -19.390625 C 30.882812 -19.234375 31.171875 -19.082031 31.515625 -18.9375 C 31.867188 -18.800781 32.195312 -18.703125 32.5 -18.640625 C 32.40625 -16.984375 32.171875 -15.878906 31.796875 -15.328125 C 31.421875 -14.773438 30.789062 -14.5 29.90625 -14.5 L 26.453125 -14.5 C 25.296875 -14.5 24.53125 -14.6875 24.15625 -15.0625 C 23.78125 -15.4375 23.59375 -16.144531 23.59375 -17.1875 Z M 14.765625 -24.453125 L 14.765625 -20.546875 L 12.796875 -20.546875 L 12.796875 -26.453125 L 31.78125 -26.453125 L 31.78125 -20.640625 L 29.75 -20.640625 L 29.75 -24.453125 Z M 18.234375 -23.296875 L 20.34375 -23.296875 C 20.226562 -21.546875 19.953125 -20.054688 19.515625 -18.828125 C 19.085938 -17.597656 18.378906 -16.566406 17.390625 -15.734375 C 16.410156 -14.910156 15.003906 -14.25 13.171875 -13.75 C 13.078125 -14 12.910156 -14.28125 12.671875 -14.59375 C 12.441406 -14.914062 12.222656 -15.164062 12.015625 -15.34375 C 13.648438 -15.769531 14.890625 -16.316406 15.734375 -16.984375 C 16.585938 -17.660156 17.191406 -18.507812 17.546875 -19.53125 C 17.910156 -20.5625 18.140625 -21.816406 18.234375 -23.296875 Z M 11.78125 -11.953125 L 7.984375 -10.65625 L 7.984375 -0.140625 C 7.984375 0.492188 7.898438 0.992188 7.734375 1.359375 C 7.578125 1.722656 7.296875 1.992188 6.890625 2.171875 C 6.523438 2.328125 6.007812 2.429688 5.34375 2.484375 C 4.675781 2.546875 3.8125 2.566406 2.75 2.546875 C 2.707031 2.296875 2.625 1.960938 2.5 1.546875 C 2.375 1.128906 2.234375 0.769531 2.078125 0.46875 C 2.835938 0.5 3.507812 0.519531 4.09375 0.53125 C 4.6875 0.539062 5.085938 0.535156 5.296875 0.515625 C 5.523438 0.515625 5.679688 0.46875 5.765625 0.375 C 5.859375 0.28125 5.90625 0.109375 5.90625 -0.140625 L 5.90625 -9.984375 C 5.132812 -9.734375 4.394531 -9.488281 3.6875 -9.25 C 2.988281 -9.007812 2.328125 -8.789062 1.703125 -8.59375 L 1.09375 -10.765625 C 1.75 -10.941406 2.488281 -11.15625 3.3125 -11.40625 C 4.132812 -11.65625 5 -11.925781 5.90625 -12.21875 L 5.90625 -19.390625 L 1.5625 -19.390625 L 1.5625 -21.453125 L 5.90625 -21.453125 L 5.90625 -28.34375 L 7.984375 -28.34375 L 7.984375 -21.453125 L 11.78125 -21.453125 L 11.78125 -19.390625 L 7.984375 -19.390625 L 7.984375 -12.90625 C 8.566406 -13.082031 9.148438 -13.265625 9.734375 -13.453125 C 10.328125 -13.648438 10.90625 -13.851562 11.46875 -14.0625 Z M 32.078125 -8.9375 L 24.65625 -8.9375 C 25.3125 -7.820312 26.082031 -6.75 26.96875 -5.71875 C 27.863281 -4.6875 28.832031 -3.757812 29.875 -2.9375 C 30.914062 -2.113281 31.96875 -1.425781 33.03125 -0.875 C 32.8125 -0.675781 32.539062 -0.40625 32.21875 -0.0625 C 31.90625 0.269531 31.65625 0.570312 31.46875 0.84375 C 29.90625 -0.03125 28.382812 -1.238281 26.90625 -2.78125 C 25.425781 -4.320312 24.164062 -5.988281 23.125 -7.78125 L 23.125 2.546875 L 20.921875 2.546875 L 20.921875 -7.703125 C 19.828125 -5.828125 18.492188 -4.125 16.921875 -2.59375 C 15.347656 -1.070312 13.671875 0.128906 11.890625 1.015625 C 11.722656 0.765625 11.5 0.460938 11.21875 0.109375 C 10.9375 -0.234375 10.671875 -0.507812 10.421875 -0.71875 C 12.210938 -1.488281 13.910156 -2.601562 15.515625 -4.0625 C 17.117188 -5.519531 18.410156 -7.144531 19.390625 -8.9375 L 12.1875 -8.9375 L 12.1875 -11 L 20.921875 -11 L 20.921875 -14.703125 L 23.125 -14.703125 L 23.125 -11 L 32.078125 -11 Z M 32.078125 -8.9375 "/></g></g></g><g fill="#000000" fill-opacity="1"><g transform="translate(232.210809, 67.828958)"><g><path d="M 10.015625 -4.71875 L 12.15625 -3.9375 C 11.382812 -3.164062 10.503906 -2.40625 9.515625 -1.65625 C 8.535156 -0.914062 7.519531 -0.21875 6.46875 0.4375 C 5.414062 1.09375 4.398438 1.671875 3.421875 2.171875 C 3.242188 1.972656 2.972656 1.703125 2.609375 1.359375 C 2.253906 1.015625 1.9375 0.753906 1.65625 0.578125 C 3.175781 -0.078125 4.691406 -0.875 6.203125 -1.8125 C 7.722656 -2.75 8.992188 -3.71875 10.015625 -4.71875 Z M 27.84375 -6.171875 L 18.03125 -5.90625 L 18.03125 2.609375 L 15.828125 2.609375 L 15.828125 -5.84375 C 13.285156 -5.769531 10.867188 -5.710938 8.578125 -5.671875 C 6.296875 -5.628906 4.265625 -5.582031 2.484375 -5.53125 L 2.34375 -7.640625 C 3.425781 -7.640625 4.625 -7.640625 5.9375 -7.640625 C 7.25 -7.640625 8.644531 -7.648438 10.125 -7.671875 C 10.53125 -7.921875 10.941406 -8.175781 11.359375 -8.4375 C 11.773438 -8.695312 12.195312 -8.960938 12.625 -9.234375 C 11.789062 -9.890625 10.773438 -10.597656 9.578125 -11.359375 C 8.378906 -12.117188 7.222656 -12.78125 6.109375 -13.34375 L 7.609375 -14.640625 C 7.898438 -14.503906 8.195312 -14.359375 8.5 -14.203125 C 8.8125 -14.054688 9.113281 -13.894531 9.40625 -13.71875 C 10.195312 -14.300781 11.007812 -14.976562 11.84375 -15.75 C 12.6875 -16.519531 13.425781 -17.234375 14.0625 -17.890625 L 4.75 -17.890625 L 4.75 -13.609375 L 2.640625 -13.609375 L 2.640625 -19.828125 L 15.78125 -19.828125 L 15.78125 -23.328125 L 2.71875 -23.328125 L 2.71875 -25.328125 L 15.78125 -25.328125 L 15.78125 -28.390625 L 18 -28.390625 L 18 -25.328125 L 31.171875 -25.328125 L 31.171875 -23.328125 L 18 -23.328125 L 18 -19.828125 L 31.4375 -19.828125 L 31.4375 -13.609375 L 29.265625 -13.609375 L 29.265625 -17.890625 L 15.484375 -17.890625 L 16.5625 -17.390625 C 15.726562 -16.566406 14.832031 -15.75 13.875 -14.9375 C 12.925781 -14.125 11.988281 -13.390625 11.0625 -12.734375 C 11.71875 -12.367188 12.332031 -11.988281 12.90625 -11.59375 C 13.488281 -11.195312 14.007812 -10.828125 14.46875 -10.484375 C 15.820312 -11.421875 17.140625 -12.390625 18.421875 -13.390625 C 19.703125 -14.398438 20.804688 -15.335938 21.734375 -16.203125 L 23.828125 -15.078125 C 22.359375 -13.878906 20.71875 -12.625 18.90625 -11.3125 C 17.101562 -10 15.335938 -8.796875 13.609375 -7.703125 C 15.492188 -7.753906 17.441406 -7.789062 19.453125 -7.8125 C 21.472656 -7.832031 23.5 -7.863281 25.53125 -7.90625 C 24.832031 -8.425781 24.117188 -8.925781 23.390625 -9.40625 C 22.671875 -9.882812 21.96875 -10.3125 21.28125 -10.6875 L 22.78125 -11.890625 C 23.800781 -11.316406 24.859375 -10.660156 25.953125 -9.921875 C 27.054688 -9.191406 28.097656 -8.460938 29.078125 -7.734375 C 30.066406 -7.015625 30.878906 -6.347656 31.515625 -5.734375 L 29.90625 -4.34375 C 29.632812 -4.613281 29.320312 -4.898438 28.96875 -5.203125 C 28.625 -5.515625 28.25 -5.835938 27.84375 -6.171875 Z M 21.53125 -3.5 L 23.21875 -4.65625 C 24.21875 -4.195312 25.253906 -3.65625 26.328125 -3.03125 C 27.398438 -2.414062 28.414062 -1.78125 29.375 -1.125 C 30.34375 -0.46875 31.144531 0.144531 31.78125 0.71875 L 29.90625 2.109375 C 29.34375 1.535156 28.59375 0.914062 27.65625 0.25 C 26.71875 -0.414062 25.707031 -1.082031 24.625 -1.75 C 23.550781 -2.414062 22.519531 -3 21.53125 -3.5 Z M 21.53125 -3.5 "/></g></g></g><g fill="#000000" fill-opacity="1"><g transform="translate(266.166052, 67.828958)"><g><path d="M 28.109375 -15.109375 L 28.109375 -18.03125 L 18.984375 -18.03125 L 18.984375 -15.109375 Z M 28.109375 -10.453125 L 28.109375 -13.40625 L 18.984375 -13.40625 L 18.984375 -10.453125 Z M 28.109375 -5.734375 L 28.109375 -8.765625 L 18.984375 -8.765625 L 18.984375 -5.734375 Z M 16.84375 -19.796875 L 20.75 -19.796875 C 20.8125 -20.242188 20.875 -20.722656 20.9375 -21.234375 C 21.007812 -21.742188 21.070312 -22.269531 21.125 -22.8125 L 11.890625 -22.8125 L 11.890625 -24.8125 L 21.28125 -24.8125 C 21.351562 -25.425781 21.410156 -26.03125 21.453125 -26.625 C 21.503906 -27.226562 21.539062 -27.800781 21.5625 -28.34375 L 23.828125 -28.21875 C 23.785156 -27.695312 23.734375 -27.144531 23.671875 -26.5625 C 23.617188 -25.988281 23.5625 -25.40625 23.5 -24.8125 L 32.25 -24.8125 L 32.25 -22.8125 L 23.296875 -22.8125 C 23.222656 -22.269531 23.148438 -21.742188 23.078125 -21.234375 C 23.015625 -20.722656 22.953125 -20.242188 22.890625 -19.796875 L 30.28125 -19.796875 L 30.28125 -3.96875 L 16.84375 -3.96875 Z M 9.203125 -28.25 L 11.3125 -27.640625 C 10.351562 -25.097656 9.1875 -22.664062 7.8125 -20.34375 L 7.8125 2.484375 L 5.640625 2.484375 L 5.640625 -16.9375 C 5.066406 -16.101562 4.472656 -15.3125 3.859375 -14.5625 C 3.253906 -13.820312 2.632812 -13.117188 2 -12.453125 C 1.882812 -12.703125 1.691406 -13.070312 1.421875 -13.5625 C 1.148438 -14.050781 0.898438 -14.410156 0.671875 -14.640625 C 1.804688 -15.742188 2.898438 -17.019531 3.953125 -18.46875 C 5.003906 -19.914062 5.984375 -21.472656 6.890625 -23.140625 C 7.796875 -24.804688 8.566406 -26.507812 9.203125 -28.25 Z M 32.453125 -1.15625 L 32.453125 0.8125 L 13.6875 0.8125 L 13.6875 2.484375 L 11.578125 2.484375 L 11.578125 -18.125 L 13.6875 -18.125 L 13.6875 -1.15625 Z M 32.453125 -1.15625 "/></g></g></g><g clip-path="url(#cc3c7bddaf)"><g clip-path="url(#8e7c6b6121)"><g transform="matrix(1, 0, 0, 1, 356, 343)"><g clip-path="url(#832913a727)"><g clip-path="url(#1d4f831724)"><g clip-path="url(#e0cc39ec5e)"><path fill="#ffffff" d="M 0.746094 0.25 L 158.566406 0.25 L 158.566406 95.765625 L 0.746094 95.765625 Z M 0.746094 0.25 " fill-opacity="1" fill-rule="nonzero"/></g></g></g></g></g></g><g clip-path="url(#9c116b72a3)"><g clip-path="url(#f1591bd426)"><path stroke-linecap="butt" transform="matrix(0.749099, 0, 0, 0.749099, 356.748019, 343.253547)" fill="none" stroke-linejoin="miter" d="M 188.974574 0.000480143 C 199.87309 0.000480143 210.766392 7.264419 210.766392 18.157721 L 210.766392 69.391177 C 210.766392 80.284479 199.87309 91.17778 188.974574 91.17778 L 76.266186 91.17778 L 36.317126 127.497477 L 36.317126 91.17778 L 21.789248 91.17778 C 10.895946 91.17778 -0.00257016 80.284479 -0.00257016 69.391177 L -0.00257016 18.157721 C -0.00257016 7.264419 10.895946 0.000480143 21.789248 0.000480143 Z M 188.974574 0.000480143 " stroke="#000000" stroke-width="6" stroke-opacity="1" stroke-miterlimit="4"/></g></g><g fill="#000000" fill-opacity="1"><g transform="translate(367.773813, 391.05045)"><g><path d="M 20.71875 -28.28125 L 22.75 -28.28125 C 23.582031 -27.039062 24.550781 -25.8125 25.65625 -24.59375 C 26.769531 -23.382812 27.941406 -22.28125 29.171875 -21.28125 C 30.410156 -20.289062 31.617188 -19.457031 32.796875 -18.78125 C 32.597656 -18.53125 32.382812 -18.226562 32.15625 -17.875 C 31.925781 -17.519531 31.722656 -17.195312 31.546875 -16.90625 C 30.367188 -17.65625 29.164062 -18.535156 27.9375 -19.546875 C 26.71875 -20.566406 25.582031 -21.65625 24.53125 -22.8125 C 23.476562 -23.96875 22.578125 -25.101562 21.828125 -26.21875 C 21.171875 -25.144531 20.34375 -24.03125 19.34375 -22.875 C 18.351562 -21.726562 17.257812 -20.625 16.0625 -19.5625 C 14.863281 -18.5 13.617188 -17.554688 12.328125 -16.734375 C 12.210938 -16.984375 12.035156 -17.273438 11.796875 -17.609375 C 11.554688 -17.953125 11.335938 -18.238281 11.140625 -18.46875 C 12.453125 -19.257812 13.71875 -20.191406 14.9375 -21.265625 C 16.15625 -22.347656 17.269531 -23.492188 18.28125 -24.703125 C 19.289062 -25.910156 20.101562 -27.101562 20.71875 -28.28125 Z M 10.90625 -27 L 12.359375 -26.109375 C 11.859375 -24.722656 11.304688 -23.234375 10.703125 -21.640625 C 10.109375 -20.046875 9.519531 -18.570312 8.9375 -17.21875 C 10.195312 -15.8125 11.03125 -14.5 11.4375 -13.28125 C 11.84375 -12.070312 12.046875 -10.9375 12.046875 -9.875 C 12.046875 -9 11.941406 -8.222656 11.734375 -7.546875 C 11.535156 -6.878906 11.210938 -6.390625 10.765625 -6.078125 C 10.535156 -5.921875 10.265625 -5.789062 9.953125 -5.6875 C 9.648438 -5.582031 9.34375 -5.507812 9.03125 -5.46875 C 8.6875 -5.445312 8.3125 -5.429688 7.90625 -5.421875 C 7.5 -5.410156 7.101562 -5.414062 6.71875 -5.4375 C 6.695312 -5.726562 6.640625 -6.0625 6.546875 -6.4375 C 6.460938 -6.8125 6.328125 -7.144531 6.140625 -7.4375 C 6.546875 -7.414062 6.925781 -7.398438 7.28125 -7.390625 C 7.632812 -7.378906 7.945312 -7.382812 8.21875 -7.40625 C 8.445312 -7.425781 8.648438 -7.457031 8.828125 -7.5 C 9.003906 -7.550781 9.175781 -7.617188 9.34375 -7.703125 C 9.582031 -7.890625 9.753906 -8.207031 9.859375 -8.65625 C 9.960938 -9.113281 10.015625 -9.585938 10.015625 -10.078125 C 10.015625 -11.003906 9.804688 -12.046875 9.390625 -13.203125 C 8.972656 -14.359375 8.128906 -15.617188 6.859375 -16.984375 C 7.378906 -18.242188 7.894531 -19.582031 8.40625 -21 C 8.914062 -22.414062 9.347656 -23.703125 9.703125 -24.859375 L 4.921875 -24.859375 L 4.921875 2.546875 L 2.890625 2.546875 L 2.890625 -26.890625 L 10.5625 -26.890625 Z M 15.515625 -8.25 L 17.546875 -7.734375 C 16.984375 -6.222656 16.253906 -4.742188 15.359375 -3.296875 C 14.460938 -1.847656 13.539062 -0.625 12.59375 0.375 C 12.4375 0.195312 12.1875 -0.03125 11.84375 -0.3125 C 11.507812 -0.601562 11.21875 -0.828125 10.96875 -0.984375 C 11.914062 -1.867188 12.785156 -2.953125 13.578125 -4.234375 C 14.367188 -5.523438 15.015625 -6.863281 15.515625 -8.25 Z M 31.203125 -10.15625 L 22.921875 -10.15625 L 22.921875 -0.0625 C 22.921875 0.539062 22.851562 1.019531 22.71875 1.375 C 22.582031 1.726562 22.285156 1.992188 21.828125 2.171875 C 21.421875 2.328125 20.859375 2.425781 20.140625 2.46875 C 19.429688 2.519531 18.546875 2.546875 17.484375 2.546875 C 17.441406 2.253906 17.347656 1.898438 17.203125 1.484375 C 17.054688 1.078125 16.890625 0.738281 16.703125 0.46875 C 17.546875 0.5 18.285156 0.515625 18.921875 0.515625 C 19.566406 0.515625 20.003906 0.515625 20.234375 0.515625 C 20.617188 0.484375 20.8125 0.289062 20.8125 -0.0625 L 20.8125 -10.15625 L 13.140625 -10.15625 L 13.140625 -12.125 L 20.8125 -12.125 L 20.8125 -16.53125 L 15.484375 -16.53125 L 15.484375 -18.5 L 28.515625 -18.5 L 28.515625 -16.53125 L 22.921875 -16.53125 L 22.921875 -12.125 L 31.203125 -12.125 Z M 25.671875 -7.46875 L 27.40625 -8.28125 C 28.03125 -7.507812 28.65625 -6.664062 29.28125 -5.75 C 29.90625 -4.832031 30.476562 -3.941406 31 -3.078125 C 31.519531 -2.222656 31.925781 -1.46875 32.21875 -0.8125 L 30.359375 0.171875 C 30.054688 -0.484375 29.65625 -1.253906 29.15625 -2.140625 C 28.664062 -3.023438 28.113281 -3.9375 27.5 -4.875 C 26.882812 -5.8125 26.273438 -6.675781 25.671875 -7.46875 Z M 25.671875 -7.46875 "/></g></g></g><g fill="#000000" fill-opacity="1"><g transform="translate(401.729056, 391.05045)"><g><path d="M 15.921875 -21.046875 L 9.03125 -21.046875 C 8.644531 -20.171875 8.238281 -19.320312 7.8125 -18.5 C 7.382812 -17.6875 6.921875 -16.90625 6.421875 -16.15625 C 7.597656 -15.476562 8.785156 -14.71875 9.984375 -13.875 C 11.179688 -13.039062 12.195312 -12.253906 13.03125 -11.515625 C 13.664062 -12.890625 14.226562 -14.375 14.71875 -15.96875 C 15.207031 -17.570312 15.609375 -19.265625 15.921875 -21.046875 Z M 25.296875 -28.34375 L 25.296875 -12.796875 C 26.535156 -11.617188 27.832031 -10.554688 29.1875 -9.609375 C 30.550781 -8.660156 31.925781 -7.878906 33.3125 -7.265625 C 33.039062 -7.035156 32.75 -6.742188 32.4375 -6.390625 C 32.132812 -6.046875 31.894531 -5.71875 31.71875 -5.40625 C 30.625 -5.945312 29.539062 -6.597656 28.46875 -7.359375 C 27.394531 -8.128906 26.335938 -8.96875 25.296875 -9.875 L 25.296875 2.484375 L 22.984375 2.484375 L 22.984375 -12.09375 C 21.992188 -13.15625 21.050781 -14.269531 20.15625 -15.4375 C 19.257812 -16.601562 18.457031 -17.785156 17.75 -18.984375 C 16.53125 -13.523438 14.679688 -9.050781 12.203125 -5.5625 C 9.722656 -2.082031 6.851562 0.5625 3.59375 2.375 C 3.394531 2.125 3.117188 1.820312 2.765625 1.46875 C 2.410156 1.125 2.085938 0.875 1.796875 0.71875 C 3.859375 -0.34375 5.75 -1.722656 7.46875 -3.421875 C 9.1875 -5.117188 10.703125 -7.132812 12.015625 -9.46875 C 11.222656 -10.257812 10.203125 -11.109375 8.953125 -12.015625 C 7.710938 -12.921875 6.484375 -13.75 5.265625 -14.5 C 4.898438 -14 4.523438 -13.519531 4.140625 -13.0625 C 3.753906 -12.613281 3.359375 -12.1875 2.953125 -11.78125 C 2.773438 -11.957031 2.488281 -12.195312 2.09375 -12.5 C 1.695312 -12.8125 1.363281 -13.046875 1.09375 -13.203125 C 2.96875 -14.953125 4.597656 -17.15625 5.984375 -19.8125 C 7.378906 -22.46875 8.472656 -25.328125 9.265625 -28.390625 L 11.46875 -27.90625 C 11.25 -27.09375 11.007812 -26.289062 10.75 -25.5 C 10.488281 -24.707031 10.210938 -23.925781 9.921875 -23.15625 L 16.609375 -23.15625 L 17.046875 -23.265625 L 18.46875 -22.71875 C 18.40625 -22.21875 18.332031 -21.734375 18.25 -21.265625 C 18.164062 -20.804688 18.070312 -20.347656 17.96875 -19.890625 L 19.28125 -20.40625 C 19.757812 -19.5 20.316406 -18.609375 20.953125 -17.734375 C 21.585938 -16.867188 22.265625 -16.015625 22.984375 -15.171875 L 22.984375 -28.34375 Z M 25.296875 -28.34375 "/></g></g></g><g fill="#000000" fill-opacity="1"><g transform="translate(435.684299, 391.05045)"><g><path d="M 22.109375 -23.765625 L 19.25 -23.765625 C 18.769531 -23.128906 18.265625 -22.519531 17.734375 -21.9375 C 17.203125 -21.363281 16.664062 -20.851562 16.125 -20.40625 C 15.894531 -20.582031 15.578125 -20.785156 15.171875 -21.015625 C 14.765625 -21.242188 14.425781 -21.425781 14.15625 -21.5625 C 15.289062 -22.394531 16.332031 -23.421875 17.28125 -24.640625 C 18.226562 -25.867188 18.960938 -27.160156 19.484375 -28.515625 L 21.65625 -27.984375 C 21.363281 -27.210938 20.992188 -26.460938 20.546875 -25.734375 L 32.25 -25.734375 L 32.25 -23.765625 L 24.515625 -23.765625 C 25.367188 -22.722656 26.003906 -21.757812 26.421875 -20.875 L 24.40625 -20.203125 C 24.207031 -20.679688 23.890625 -21.25 23.453125 -21.90625 C 23.023438 -22.5625 22.578125 -23.179688 22.109375 -23.765625 Z M 7.875 -23.765625 L 6.171875 -23.765625 C 5.242188 -22.335938 4.257812 -21.128906 3.21875 -20.140625 C 3.019531 -20.316406 2.734375 -20.53125 2.359375 -20.78125 C 1.984375 -21.03125 1.660156 -21.222656 1.390625 -21.359375 C 2.410156 -22.265625 3.351562 -23.347656 4.21875 -24.609375 C 5.09375 -25.878906 5.789062 -27.179688 6.3125 -28.515625 L 8.421875 -27.9375 C 8.265625 -27.582031 8.097656 -27.21875 7.921875 -26.84375 C 7.753906 -26.46875 7.570312 -26.097656 7.375 -25.734375 L 16.53125 -25.734375 L 16.53125 -23.765625 L 10.078125 -23.765625 C 10.347656 -23.316406 10.597656 -22.851562 10.828125 -22.375 C 11.054688 -21.894531 11.21875 -21.460938 11.3125 -21.078125 L 9.34375 -20.546875 C 9.207031 -20.972656 9 -21.476562 8.71875 -22.0625 C 8.445312 -22.65625 8.164062 -23.222656 7.875 -23.765625 Z M 4.921875 -6.953125 L 8.71875 -6.953125 L 8.71875 -9.40625 L 4.921875 -9.40625 Z M 4.921875 -13.28125 L 4.921875 -10.90625 L 8.71875 -10.90625 L 8.71875 -13.28125 Z M 14.46875 -13.28125 L 10.6875 -13.28125 L 10.6875 -10.90625 L 14.46875 -10.90625 Z M 14.46875 -6.953125 L 14.46875 -9.40625 L 10.6875 -9.40625 L 10.6875 -6.953125 Z M 10.6875 -5.40625 L 10.6875 -3.21875 L 17.71875 -3.21875 L 17.71875 -1.421875 L 10.6875 -1.421875 L 10.6875 2.546875 L 8.71875 2.546875 L 8.71875 -1.421875 L 1.65625 -1.421875 L 1.65625 -3.21875 L 8.71875 -3.21875 L 8.71875 -5.40625 L 3.0625 -5.40625 L 3.0625 -14.796875 L 8.71875 -14.796875 L 8.71875 -16.84375 L 2.203125 -16.84375 L 2.203125 -18.609375 L 8.71875 -18.609375 L 8.71875 -20.40625 L 10.6875 -20.40625 L 10.6875 -18.609375 L 17.25 -18.609375 L 17.25 -16.84375 L 10.6875 -16.84375 L 10.6875 -14.796875 L 16.4375 -14.796875 L 16.4375 -5.40625 Z M 22.8125 0.140625 L 28.765625 0.140625 C 29.253906 0.140625 29.617188 0.0195312 29.859375 -0.21875 C 30.097656 -0.457031 30.273438 -0.90625 30.390625 -1.5625 C 30.503906 -2.21875 30.582031 -3.164062 30.625 -4.40625 C 30.875 -4.25 31.195312 -4.085938 31.59375 -3.921875 C 31.988281 -3.753906 32.332031 -3.632812 32.625 -3.5625 C 32.539062 -2.09375 32.382812 -0.929688 32.15625 -0.078125 C 31.925781 0.765625 31.554688 1.351562 31.046875 1.6875 C 30.535156 2.03125 29.816406 2.203125 28.890625 2.203125 L 22.6875 2.203125 C 21.664062 2.203125 20.863281 2.097656 20.28125 1.890625 C 19.707031 1.691406 19.300781 1.328125 19.0625 0.796875 C 18.820312 0.265625 18.703125 -0.484375 18.703125 -1.453125 L 18.703125 -19.046875 L 30.890625 -19.046875 L 30.890625 -8.890625 C 30.890625 -8.328125 30.8125 -7.863281 30.65625 -7.5 C 30.5 -7.132812 30.179688 -6.863281 29.703125 -6.6875 C 29.253906 -6.507812 28.644531 -6.394531 27.875 -6.34375 C 27.101562 -6.300781 26.117188 -6.28125 24.921875 -6.28125 C 24.847656 -6.59375 24.738281 -6.945312 24.59375 -7.34375 C 24.445312 -7.738281 24.296875 -8.085938 24.140625 -8.390625 C 25.140625 -8.367188 25.992188 -8.359375 26.703125 -8.359375 C 27.421875 -8.359375 27.890625 -8.367188 28.109375 -8.390625 C 28.359375 -8.410156 28.519531 -8.453125 28.59375 -8.515625 C 28.675781 -8.585938 28.71875 -8.726562 28.71875 -8.9375 L 28.71875 -17.046875 L 20.875 -17.046875 L 20.875 -1.421875 C 20.875 -0.785156 20.988281 -0.363281 21.21875 -0.15625 C 21.445312 0.0390625 21.976562 0.140625 22.8125 0.140625 Z M 22.8125 0.140625 "/></g></g></g><g fill="#000000" fill-opacity="1"><g transform="translate(469.639542, 391.05045)"><g><path d="M 14.1875 -11.84375 L 20.0625 -11.84375 L 20.0625 -16.703125 L 14.265625 -16.703125 L 14.265625 -14.21875 C 14.265625 -13.8125 14.253906 -13.410156 14.234375 -13.015625 C 14.222656 -12.617188 14.207031 -12.226562 14.1875 -11.84375 Z M 26.921875 -11.84375 L 26.921875 -9.953125 L 22.109375 -9.953125 L 22.109375 -2.78125 L 20.0625 -2.78125 L 20.0625 -9.953125 L 13.953125 -9.953125 C 13.703125 -8.472656 13.207031 -7.085938 12.46875 -5.796875 C 11.738281 -4.515625 10.59375 -3.375 9.03125 -2.375 C 8.875 -2.601562 8.648438 -2.863281 8.359375 -3.15625 C 8.078125 -3.445312 7.828125 -3.675781 7.609375 -3.84375 C 8.921875 -4.675781 9.90625 -5.609375 10.5625 -6.640625 C 11.21875 -7.671875 11.671875 -8.773438 11.921875 -9.953125 L 7.234375 -9.953125 L 7.234375 -11.84375 L 12.1875 -11.84375 C 12.257812 -12.632812 12.296875 -13.441406 12.296875 -14.265625 L 12.296875 -16.703125 L 7.640625 -16.703125 L 7.640625 -18.609375 L 12.296875 -18.609375 L 12.296875 -22.984375 L 14.265625 -22.984375 L 14.265625 -18.609375 L 20.0625 -18.609375 L 20.0625 -22.984375 L 22.109375 -22.984375 L 22.109375 -18.609375 L 26.828125 -18.609375 L 26.828125 -16.703125 L 22.109375 -16.703125 L 22.109375 -11.84375 Z M 5.234375 -1.09375 L 28.71875 -1.09375 L 28.71875 -24.609375 L 5.234375 -24.609375 Z M 3.015625 -26.75 L 31.03125 -26.75 L 31.03125 2.609375 L 28.71875 2.609375 L 28.71875 0.984375 L 5.234375 0.984375 L 5.234375 2.609375 L 3.015625 2.609375 Z M 3.015625 -26.75 "/></g></g></g></svg>